<mxfile host="www.draw.io" modified="2020-02-02T13:30:25.511Z" agent="Mozilla/5.0 (Macintosh; Intel Mac OS X 10_15_2) AppleWebKit/537.36 (KHTML, like Gecko) Chrome/79.0.3945.130 Safari/537.36" etag="j_vXdsS6_5oPPHl7SLZm" version="12.6.2" type="github">
  <diagram name="Page-1" id="ad52d381-51e7-2e0d-a935-2d0ddd2fd229">
    <mxGraphModel dx="3277" dy="2904" grid="1" gridSize="10" guides="1" tooltips="1" connect="1" arrows="1" fold="1" page="1" pageScale="1" pageWidth="1169" pageHeight="827" background="#9AC7BF" math="0" shadow="0">
      <root>
        <mxCell id="0"/>
        <mxCell id="1" parent="0"/>
        <mxCell id="lcUeHcnI_oaIsX3chBQn-14" value="Copyright Law" style="text;html=1;strokeColor=none;fillColor=none;align=center;verticalAlign=middle;whiteSpace=wrap;rounded=0;fontFamily=Verdana;fontSize=24;" vertex="1" parent="1">
          <mxGeometry x="456.33" y="-810" width="200" height="40" as="geometry"/>
        </mxCell>
        <mxCell id="lcUeHcnI_oaIsX3chBQn-15" value="– A Conversation" style="text;html=1;strokeColor=none;fillColor=none;align=center;verticalAlign=middle;whiteSpace=wrap;rounded=0;fontFamily=Verdana;fontSize=24;" vertex="1" parent="1">
          <mxGeometry x="526.33" y="-770" width="220" height="20" as="geometry"/>
        </mxCell>
        <mxCell id="lcUeHcnI_oaIsX3chBQn-23" value="" style="rounded=1;whiteSpace=wrap;html=1;strokeWidth=2;fontFamily=Verdana;fontSize=12;" vertex="1" parent="1">
          <mxGeometry x="136.32999999999998" y="-290" width="890" height="390" as="geometry"/>
        </mxCell>
        <mxCell id="lcUeHcnI_oaIsX3chBQn-24" value="" style="group" vertex="1" connectable="0" parent="1">
          <mxGeometry x="136.32999999999998" y="-710" width="890" height="400" as="geometry"/>
        </mxCell>
        <mxCell id="lcUeHcnI_oaIsX3chBQn-16" value="" style="rounded=1;whiteSpace=wrap;html=1;strokeWidth=2;fontFamily=Verdana;fontSize=24;fillColor=#f5f5f5;strokeColor=#666666;fontColor=#333333;" vertex="1" parent="lcUeHcnI_oaIsX3chBQn-24">
          <mxGeometry width="890" height="400" as="geometry"/>
        </mxCell>
        <mxCell id="lcUeHcnI_oaIsX3chBQn-12" value="For one thing, the purpose of copyright is to give creators an incentive to create new works – instead of only reproducing others&#39; work." style="shape=callout;whiteSpace=wrap;html=1;perimeter=calloutPerimeter;strokeWidth=2;fontFamily=Verdana;" vertex="1" parent="lcUeHcnI_oaIsX3chBQn-24">
          <mxGeometry x="620" y="30" width="210" height="120" as="geometry"/>
        </mxCell>
        <mxCell id="lcUeHcnI_oaIsX3chBQn-13" value="What is the purpose of copyright?" style="shape=callout;whiteSpace=wrap;html=1;perimeter=calloutPerimeter;strokeWidth=2;fontFamily=Verdana;flipV=0;flipH=1;" vertex="1" parent="lcUeHcnI_oaIsX3chBQn-24">
          <mxGeometry x="410.00000000000006" y="20" width="190" height="80" as="geometry"/>
        </mxCell>
        <mxCell id="lcUeHcnI_oaIsX3chBQn-17" value="&lt;h1 style=&quot;font-size: 12px&quot;&gt;Copyright Law&lt;/h1&gt;&lt;p style=&quot;font-size: 12px&quot;&gt;Copyright law regulates how, by whom, and under what conditions a creative work can be used for what purpose.&amp;nbsp;&lt;/p&gt;&lt;p style=&quot;font-size: 12px&quot;&gt;First created in the 18th century in Great Britain, it exists today with some variation all around the world. It is, however, not an &#39;international&#39; law but enacted and enforced through national laws.&amp;nbsp;&lt;/p&gt;&lt;p style=&quot;font-size: 12px&quot;&gt;Since the 19th century, efforts have been made to standardize copyright law globally and today we have pretty similar copyright law in the vast majority of countries.&lt;/p&gt;" style="text;html=1;strokeColor=none;fillColor=none;spacing=5;spacingTop=-20;whiteSpace=wrap;overflow=hidden;rounded=0;fontFamily=Verdana;fontSize=12;" vertex="1" parent="lcUeHcnI_oaIsX3chBQn-24">
          <mxGeometry x="20" y="20" width="340" height="210" as="geometry"/>
        </mxCell>
        <mxCell id="lcUeHcnI_oaIsX3chBQn-18" value="That sounds like a rather Utilitarian rationale. Are there any alternatives?" style="shape=callout;whiteSpace=wrap;html=1;perimeter=calloutPerimeter;strokeWidth=2;fontFamily=Verdana;fontSize=12;flipH=1;" vertex="1" parent="lcUeHcnI_oaIsX3chBQn-24">
          <mxGeometry x="410.00000000000006" y="110" width="190" height="90" as="geometry"/>
        </mxCell>
        <mxCell id="lcUeHcnI_oaIsX3chBQn-19" value="Yes, what is today most often considered to be the main purpose of copyright is the protection of authors&#39; rights.&amp;nbsp;" style="shape=callout;whiteSpace=wrap;html=1;perimeter=calloutPerimeter;strokeWidth=2;fontFamily=Verdana;fontSize=12;position2=0.48;" vertex="1" parent="lcUeHcnI_oaIsX3chBQn-24">
          <mxGeometry x="620" y="160" width="210" height="110" as="geometry"/>
        </mxCell>
        <mxCell id="lcUeHcnI_oaIsX3chBQn-20" value="Do you mean to ensure that the creator of a work is attributed and no one can edit it or change it around without permission?" style="shape=callout;whiteSpace=wrap;html=1;perimeter=calloutPerimeter;strokeWidth=2;fontFamily=Verdana;fontSize=12;flipH=1;" vertex="1" parent="lcUeHcnI_oaIsX3chBQn-24">
          <mxGeometry x="410.00000000000006" y="210" width="190" height="120" as="geometry"/>
        </mxCell>
        <mxCell id="lcUeHcnI_oaIsX3chBQn-21" value="Yes, exactly! Some countries even grant moral rights in order to protect the relation between a creator and their work.&amp;nbsp;" style="shape=callout;whiteSpace=wrap;html=1;perimeter=calloutPerimeter;strokeWidth=2;fontFamily=Verdana;fontSize=12;" vertex="1" parent="lcUeHcnI_oaIsX3chBQn-24">
          <mxGeometry x="620" y="280" width="210" height="100" as="geometry"/>
        </mxCell>
      </root>
    </mxGraphModel>
  </diagram>
</mxfile>
